<svg width="206" height="64" viewBox="0 0 206 64" fill="none" xmlns="http://www.w3.org/2000/svg">
<g clip-path="url(#clip0)">
<path fill-rule="evenodd" clip-rule="evenodd" d="M205.364 32.0151C205.364 25.6831 203.486 19.4933 199.969 14.2285C196.451 8.96361 191.451 4.86015 185.601 2.43701C179.751 0.0138629 173.314 -0.62013 167.103 0.615178C160.893 1.85049 155.188 4.89962 150.711 9.37701C146.234 13.8544 143.184 19.5589 141.949 25.7692C140.714 31.9796 141.348 38.4167 143.771 44.2667C146.194 50.1167 150.298 55.1168 155.562 58.6346C160.827 62.1525 167.017 64.0301 173.349 64.0301C181.84 64.0301 189.983 60.6571 195.987 54.6531C201.991 48.6492 205.364 40.506 205.364 32.0151Z" fill="#0B0B0B"/>
<path fill-rule="evenodd" clip-rule="evenodd" d="M177.935 42.698C174.804 42.7916 171.709 42.0093 168.998 40.4391L161.867 36.3206C161.71 36.2316 161.528 36.1974 161.35 36.2233C161.171 36.2492 161.006 36.3337 160.881 36.4636L155.754 41.8547C155.522 42.0997 155.344 42.3904 155.232 42.708C155.119 43.0256 155.073 43.3633 155.098 43.6994C155.125 44.0351 155.221 44.3615 155.382 44.6573C155.543 44.9531 155.765 45.2117 156.032 45.4161C158.117 47.011 160.419 48.2991 162.869 49.241C164.788 49.973 166.88 50.1213 168.883 49.6671C170.886 49.2129 172.71 48.1766 174.125 46.6886L177.935 42.698Z" fill="white"/>
<path fill-rule="evenodd" clip-rule="evenodd" d="M191.616 20.7006C190.352 18.5624 188.802 16.6068 187.008 14.8879C185.262 13.2114 182.985 12.1968 180.571 12.0192C178.264 11.8473 175.947 12.153 173.763 12.9172C171.58 13.6814 169.578 14.8877 167.882 16.4607C166.186 18.0336 164.833 19.9395 163.907 22.0591C162.981 24.1787 162.502 26.4666 162.5 28.7796V33.0413C162.499 33.322 162.573 33.5979 162.713 33.8411C162.853 34.0844 163.055 34.2863 163.298 34.4267L168.23 37.2803C171.005 38.8842 174.18 39.6612 177.382 39.5198C180.583 39.3784 183.678 38.3245 186.3 36.4822C187.648 35.5407 188.908 34.4798 190.065 33.3123C191.68 31.6767 192.709 29.5523 192.989 27.2707C193.27 24.9891 192.787 22.6788 191.616 20.7006Z" fill="white"/>
<path d="M19.3877 33.6159V29.999C19.3877 29.4678 19.1767 28.9583 18.8011 28.5827C18.4255 28.2071 17.9161 27.9961 17.3849 27.9961C16.8537 27.9961 16.3442 28.2071 15.9686 28.5827C15.593 28.9583 15.382 29.4678 15.382 29.999V32.8066C15.382 34.5057 14.707 36.1352 13.5056 37.3366C12.3041 38.5381 10.6746 39.2131 8.97554 39.2131H8.91676C8.29669 39.2328 7.70822 39.4913 7.27426 39.9346C6.8403 40.378 6.59444 40.9719 6.58802 41.5922C6.5816 42.2126 6.81512 42.8114 7.23981 43.2636C7.6645 43.7159 8.2475 43.9865 8.86703 44.019C10.2349 44.0352 11.5925 43.7812 12.862 43.2718C14.1316 42.7624 15.2881 42.0074 16.2655 41.0503C17.2428 40.0931 18.0216 38.9526 18.5574 37.6939C19.0932 36.4352 19.3753 35.0832 19.3877 33.7153V33.6159Z" fill="#0B0B0B"/>
<path d="M39.5752 32.3025L35.9583 28.6856L40.9587 23.6581C41.1579 23.4589 41.3159 23.2224 41.4237 22.9621C41.5315 22.7019 41.587 22.4229 41.587 22.1412C41.587 21.8595 41.5315 21.5806 41.4237 21.3203C41.3159 21.0601 41.1579 20.8236 40.9587 20.6244C40.7595 20.4252 40.523 20.2672 40.2627 20.1594C40.0025 20.0516 39.7235 19.9961 39.4418 19.9961C39.1601 19.9961 38.8812 20.0516 38.6209 20.1594C38.3607 20.2672 38.1242 20.4252 37.925 20.6244L31.6948 26.85C31.2128 27.3339 30.9421 27.989 30.9421 28.672C30.9421 29.355 31.2128 30.0102 31.6948 30.4941L36.0261 34.8253C36.3863 35.1843 36.632 35.642 36.7321 36.1405C36.8323 36.639 36.7825 37.1561 36.589 37.6263C36.3955 38.0966 36.0669 38.4989 35.6449 38.7826C35.2228 39.0662 34.7262 39.2184 34.2177 39.2199H30.1079C29.47 39.2199 28.8582 38.9665 28.4072 38.5154C27.9561 38.0643 27.7027 37.4525 27.7027 36.8146V22.139C27.6773 21.587 27.4402 21.0661 27.0407 20.6845C26.6412 20.3029 26.1099 20.0899 25.5574 20.0899C25.0049 20.0899 24.4736 20.3029 24.0741 20.6845C23.6745 21.0661 23.4375 21.587 23.4121 22.139V37.1447C23.4121 38.9661 24.1357 40.7129 25.4236 42.0008C26.7115 43.2887 28.4583 44.0123 30.2797 44.0123H34.7376C36.0957 44.0121 37.4234 43.6092 38.5526 42.8546C39.6818 42.1 40.5619 41.0275 41.0816 39.7727C41.6013 38.5179 41.7373 37.1372 41.4724 35.8051C41.2075 34.473 40.5536 33.2494 39.5933 32.289L39.5752 32.3025Z" fill="#0B0B0B"/>
<path d="M54.6718 30.4863L50.2682 28.2257C49.7636 27.9897 49.1871 27.959 48.6603 28.14C48.1335 28.3211 47.6976 28.6998 47.4448 29.1961C47.1919 29.6925 47.1418 30.2677 47.305 30.8003C47.4682 31.3328 47.832 31.7812 48.3196 32.0506L52.2936 34.0761C52.8374 34.3521 53.2723 34.8034 53.5281 35.3569C53.7839 35.9105 53.8457 36.5341 53.7036 37.1271C53.5615 37.7201 53.2237 38.2479 52.7448 38.6254C52.2659 39.0029 51.6737 39.208 51.0639 39.2076H46.3845C46.0602 39.1935 45.7363 39.2452 45.4325 39.3597C45.1287 39.4741 44.8512 39.6488 44.6168 39.8733C44.3823 40.0979 44.1957 40.3675 44.0682 40.6661C43.9407 40.9647 43.875 41.2859 43.875 41.6106C43.875 41.9352 43.9407 42.2565 44.0682 42.5551C44.1957 42.8536 44.3823 43.1233 44.6168 43.3478C44.8512 43.5723 45.1287 43.7471 45.4325 43.8615C45.7363 43.9759 46.0602 44.0276 46.3845 44.0136H51.412C53.0281 44.0229 54.5999 43.4853 55.8718 42.4881C57.1437 41.491 58.0409 40.0929 58.4175 38.5213C58.7942 36.9496 58.6282 35.2968 57.9465 33.8315C57.2648 32.3661 56.1075 31.1744 54.6627 30.4501L54.6718 30.4863Z" fill="#0B0B0B"/>
<path d="M81.4071 24H72.6044C72.3414 24 72.081 24.0518 71.838 24.1525C71.595 24.2531 71.3742 24.4006 71.1882 24.5866C71.0022 24.7726 70.8547 24.9934 70.754 25.2364C70.6534 25.4794 70.6016 25.7398 70.6016 26.0029C70.6016 26.2659 70.6534 26.5263 70.754 26.7693C70.8547 27.0123 71.0022 27.2331 71.1882 27.4191C71.3742 27.6051 71.595 27.7526 71.838 27.8533C72.081 27.9539 72.3414 28.0057 72.6044 28.0057H81.4161C81.9473 28.0057 82.4568 27.7947 82.8324 27.4191C83.208 27.0435 83.419 26.5341 83.419 26.0029C83.419 25.4717 83.208 24.9622 82.8324 24.5866C82.4568 24.211 81.9473 24 81.4161 24H81.4071Z" fill="#0B0B0B"/>
<path d="M118.631 35.2143C118.692 34.6959 118.555 34.1737 118.249 33.7509C117.943 33.3282 117.49 33.0356 116.979 32.9311C116.467 32.8266 115.935 32.9177 115.488 33.1864C115.04 33.4551 114.71 33.8819 114.562 34.3824C114.212 35.7697 113.407 36.9997 112.276 37.8765C111.146 38.7532 109.754 39.2262 108.323 39.22H81.0154C80.0256 39.2194 79.0493 38.9904 78.1625 38.5509C78.7213 37.5097 79.1004 36.3816 79.2838 35.2143C79.3441 34.6959 79.2079 34.1737 78.9018 33.7509C78.5958 33.3282 78.1423 33.0356 77.631 32.9311C77.1197 32.8266 76.5877 32.9177 76.1403 33.1864C75.6929 33.4551 75.3626 33.8819 75.2147 34.3824C74.8649 35.7674 74.0622 36.9958 72.9342 37.8723C71.8062 38.7488 70.4176 39.2232 68.9891 39.22C68.3512 39.22 67.7394 38.9666 67.2883 38.5155C66.8373 38.0644 66.5839 37.4527 66.5839 36.8148V21.999C66.5839 21.4678 66.3728 20.9583 65.9972 20.5827C65.6216 20.2071 65.1122 19.9961 64.581 19.9961C64.0498 19.9961 63.5404 20.2071 63.1648 20.5827C62.7891 20.9583 62.5781 21.4678 62.5781 21.999V37.6195C62.5793 39.319 63.2553 40.9485 64.4575 42.1499C65.6596 43.3512 67.2896 44.026 68.9891 44.026C71.4024 44.0312 73.7425 43.1969 75.6081 41.6659C76.208 42.4069 76.9658 43.0046 77.8262 43.4152C78.6867 43.8259 79.6279 44.0392 80.5813 44.0395H108.323C110.813 44.0466 113.223 43.1597 115.115 41.5401C117.007 39.9205 118.255 37.6759 118.631 35.2143Z" fill="#0B0B0B"/>
<path d="M126.666 21.999C126.666 21.4678 126.455 20.9583 126.079 20.5827C125.704 20.2071 125.194 19.9961 124.663 19.9961C124.132 19.9961 123.622 20.2071 123.247 20.5827C122.871 20.9583 122.66 21.4678 122.66 21.999V42.0231C122.66 42.5543 122.871 43.0638 123.247 43.4394C123.622 43.815 124.132 44.026 124.663 44.026C125.194 44.026 125.704 43.815 126.079 43.4394C126.455 43.0638 126.666 42.5543 126.666 42.0231V21.999Z" fill="#0B0B0B"/>
</g>
<defs>
<clipPath id="clip0">
<path d="M0 0H205.333V64H0V0Z" fill="white"/>
</clipPath>
</defs>
</svg>
