<svg width="16" height="16" viewBox="0 0 16 16" fill="none" xmlns="http://www.w3.org/2000/svg">
<path d="M11.9835 10.4008V3.40878C11.9835 3.40878 11.9835 3.40878 11.9835 3.39278C11.9835 3.39278 11.9835 3.39278 11.9835 3.37678C11.9835 3.36078 11.9835 3.36078 11.9835 3.34478C11.9835 3.32878 11.9835 3.32878 11.9675 3.31278C11.9675 3.29678 11.9675 3.29678 11.9515 3.28078C11.9515 3.26478 11.9355 3.26478 11.9355 3.24878C11.9355 3.23278 11.9195 3.23278 11.9195 3.21678L9.5515 0.864781C9.5515 0.864781 9.5355 0.848781 9.5195 0.848781C9.5035 0.848781 9.5035 0.832781 9.4875 0.832781C9.4715 0.832781 9.4715 0.816781 9.4555 0.816781C9.4395 0.816781 9.4395 0.800781 9.4235 0.800781C9.4075 0.800781 9.4075 0.800781 9.3915 0.800781C9.3915 0.800781 9.3915 0.800781 9.3755 0.800781C9.3755 0.800781 9.3755 0.800781 9.3595 0.800781H2.9275C2.7995 0.800781 2.6875 0.912781 2.6875 1.04078V14.2248C2.6875 14.3208 2.7515 14.4168 2.8315 14.4488C2.8635 14.4648 2.8955 14.4648 2.9275 14.4648C2.9915 14.4648 3.0555 14.4328 3.1035 14.4008L4.0315 13.4728L4.9595 14.4008C5.0555 14.4968 5.1995 14.4968 5.2955 14.4008L6.2235 13.4728L7.1515 14.4008C7.2475 14.4968 7.3915 14.4968 7.4875 14.4008L8.3355 13.5528C8.7035 14.5128 9.6315 15.2008 10.7355 15.2008C12.1435 15.2008 13.2955 14.0488 13.2955 12.6408C13.3115 11.6648 12.7835 10.8328 11.9835 10.4008ZM9.6155 1.63278L11.1515 3.16878H9.6155V1.63278ZM8.2235 13.0088L7.3435 13.8888L6.3995 12.9608C6.3035 12.8648 6.1595 12.8648 6.0635 12.9608L5.1355 13.8888L4.1915 12.9608C4.0955 12.8648 3.9515 12.8648 3.8555 12.9608L3.1675 13.6488V1.28078H9.1355V3.40878C9.1355 3.53678 9.2475 3.64878 9.3755 3.64878H11.5035V10.1768C11.2635 10.0968 11.0235 10.0648 10.7515 10.0648C9.3435 10.0648 8.1915 11.2168 8.1915 12.6248C8.1915 12.7688 8.2075 12.8808 8.2235 13.0088ZM10.7515 14.7208C9.5995 14.7208 8.6715 13.7928 8.6715 12.6408C8.6715 11.4888 9.5995 10.5608 10.7515 10.5608C11.9035 10.5608 12.8315 11.4888 12.8315 12.6408C12.8315 13.7768 11.9035 14.7208 10.7515 14.7208Z" fill="#0B0B0B" stroke="#0B0B0B" stroke-width="0.3"/>
<path d="M7.44054 7.47266H4.14453V7.95266H7.44054V7.47266Z" fill="#1A1A1A"/>
<path d="M7.44054 10.3203H4.14453V10.8003H7.44054V10.3203Z" fill="#1A1A1A"/>
<path d="M10.5123 8.89453H9.07227V9.37453H10.5123V8.89453Z" fill="#1A1A1A"/>
<path d="M6.32054 8.89453H4.14453V9.37453H6.32054V8.89453Z" fill="#1A1A1A"/>
<path d="M10.5123 7.47266H9.07227V7.95266H10.5123V7.47266Z" fill="#1A1A1A"/>
<path d="M7.45616 6.02734H4.16016V6.50734H7.45616V6.02734Z" fill="#1A1A1A"/>
<path d="M10.5279 6.02734H9.08789V6.50734H10.5279V6.02734Z" fill="#1A1A1A"/>
<path d="M7.45616 4.58594H4.16016V5.06594H7.45616V4.58594Z" fill="#1A1A1A"/>
<path d="M10.5279 4.58594H9.08789V5.06594H10.5279V4.58594Z" fill="#1A1A1A"/>
<g clip-path="url(#clip0)">
<path d="M10.7733 11.5251L11.0677 12.1203L11.1167 12.227L11.2234 12.243L11.8805 12.3379L11.4133 12.7966L11.3333 12.8744L11.3525 12.9811L11.4645 13.635L10.8767 13.3267L10.7733 13.283L10.6741 13.3352L10.0863 13.6392L10.193 12.9854L10.2122 12.8787L10.1333 12.7966L9.66179 12.3326L10.3189 12.2376L10.4255 12.2216L10.4746 12.115L10.7733 11.5251ZM10.7733 11.043L10.2879 12.0264L9.20312 12.1832L9.9882 12.9491L9.80259 14.0296L10.7733 13.5198L11.7439 14.0296L11.5583 12.9491L12.3434 12.1843L11.2586 12.0264L10.7733 11.043Z" fill="#1F1F1F"/>
</g>
<defs>
<clipPath id="clip0">
<path d="M9.06641 10.8281H12.4798V14.2415H9.06641V10.8281Z" fill="white"/>
</clipPath>
</defs>
</svg>
